<?xml version="1.0" standalone="no"?>
<!DOCTYPE svg PUBLIC "-//W3C//DTD SVG 20010904//EN"
 "http://www.w3.org/TR/2001/REC-SVG-20010904/DTD/svg10.dtd">
<svg version="1.0" xmlns="http://www.w3.org/2000/svg"
 width="605.000000pt" height="543.000000pt" viewBox="0 0 605.000000 543.000000"
 preserveAspectRatio="xMidYMid meet">

<g transform="translate(0.000000,543.000000) scale(0.100000,-0.100000)"
fill="#0a5a68" stroke="none">
<path d="M3740 5350 c-91 -21 -210 -74 -260 -117 -20 -17 -38 -23 -52 -20 -16
5 -30 -3 -56 -31 l-35 -37 6 -1118 c7 -1104 7 -1119 -13 -1178 -20 -59 -20
-60 -1 -103 17 -40 18 -62 13 -277 l-5 -233 -39 -36 c-55 -53 -52 -106 10
-172 l26 -28 -13 -347 c-16 -468 -52 -966 -81 -1131 -7 -37 -6 -60 1 -74 28
-52 65 48 103 277 25 149 58 629 71 1035 3 96 9 191 12 210 22 140 30 -292 13
-795 -14 -401 -35 -667 -65 -811 -7 -30 -4 -33 52 -68 151 -97 438 -216 518
-216 21 0 18 6 -29 53 -88 88 -146 234 -195 487 -52 273 -88 677 -97 1075 -1
83 -5 265 -8 405 l-5 255 28 -95 c52 -172 115 -351 162 -457 11 -24 19 -46 19
-49 0 -15 96 -216 152 -319 243 -446 534 -720 868 -815 205 -59 440 -45 605
37 299 149 477 412 516 762 12 105 7 172 -22 305 -23 102 -54 174 -110 248
-37 51 -122 128 -140 128 -18 0 -8 -17 46 -74 128 -135 196 -381 161 -582 -20
-115 -60 -213 -118 -289 -62 -81 -91 -107 -168 -150 -140 -79 -304 -114 -446
-95 -237 31 -426 132 -635 340 -283 281 -522 719 -704 1290 -29 91 -105 363
-105 375 0 3 30 20 68 39 76 38 268 166 351 233 97 78 258 240 334 336 86 108
207 304 238 385 85 224 111 330 124 493 12 142 -22 328 -83 459 -21 46 -108
176 -146 219 -97 108 -285 222 -433 261 -116 32 -319 36 -433 10z m275 -144
c249 -66 457 -285 525 -552 35 -138 45 -252 32 -379 -25 -239 -104 -462 -234
-663 -145 -223 -361 -420 -576 -526 -30 -14 -59 -26 -66 -26 -8 0 -25 66 -49
188 -61 308 -96 552 -117 827 -32 416 -59 781 -65 906 l-7 116 41 33 c113 89
341 123 516 76z m495 -4079 c46 -41 87 -70 213 -151 63 -40 212 -97 316 -122
195 -45 463 12 630 134 31 22 29 18 -14 -27 -27 -29 -75 -68 -106 -87 -54 -32
-189 -89 -189 -79 0 2 -12 0 -27 -6 -30 -11 -245 -15 -261 -5 -5 3 -27 8 -48
12 -142 22 -362 154 -514 308 -73 74 -73 88 0 23z"/>
<path d="M2905 5191 c-43 -18 -64 -61 -128 -256 -147 -450 -362 -979 -553
-1355 -135 -268 -361 -643 -416 -691 -10 -9 -18 -21 -18 -27 0 -5 -7 -13 -16
-16 -8 -3 -13 -10 -9 -15 3 -6 -1 -13 -9 -18 -8 -4 -14 -10 -13 -13 2 -7 -89
-124 -168 -215 -34 -38 -70 -81 -81 -94 -44 -54 -226 -207 -318 -268 -174
-116 -317 -160 -481 -150 -112 6 -179 33 -250 98 -139 128 -167 399 -65 624
69 153 205 299 346 370 76 38 83 40 174 40 52 0 103 -4 114 -9 14 -7 18 -6 14
5 -7 22 -87 48 -148 48 -87 1 -193 -33 -300 -97 -25 -14 -47 -27 -50 -27 -9
-1 -63 -48 -153 -135 -233 -223 -359 -539 -317 -789 18 -106 75 -215 150 -284
165 -153 402 -182 678 -82 108 39 282 123 288 140 4 8 12 15 19 15 7 0 15 3
17 8 2 4 32 28 68 54 116 82 272 234 401 388 57 70 70 86 149 192 27 37 54 69
59 72 5 4 19 26 31 51 12 25 28 45 36 45 55 0 193 -108 578 -450 l209 -185 -7
-230 c-31 -1078 -120 -1600 -302 -1782 -47 -47 -50 -53 -29 -53 80 0 367 119
518 216 56 35 59 38 52 68 -30 144 -51 410 -65 811 -17 503 -9 935 13 795 3
-19 9 -114 12 -210 13 -406 46 -886 71 -1035 38 -229 75 -329 103 -277 7 14 8
37 1 74 -29 165 -65 663 -81 1131 l-13 347 26 28 c64 68 65 119 6 176 l-43 40
-3 1446 c-3 1112 -7 1449 -16 1462 -15 21 -55 30 -81 19z m-25 -293 c0 -24 -4
-90 -10 -148 -39 -424 -120 -1905 -120 -2191 0 -40 -3 -49 -17 -49 -10 1 -99
69 -198 151 -275 230 -367 298 -473 345 -1 0 47 97 106 215 213 419 407 894
613 1501 74 218 99 262 99 176z"/>
</g>
</svg>
